<?xml version="1.0" encoding="UTF-8"?>
<svg version="1.1" xmlns="http://www.w3.org/2000/svg" width="798" height="797">
<path d="M0 0 C1.13824219 -0.03996094 2.27648437 -0.07992188 3.44921875 -0.12109375 C11.91015314 1.10227695 19.22320883 6.47647132 26.1484375 11.25 C26.96841217 11.80731812 27.78838684 12.36463623 28.63320923 12.93884277 C30.39879421 14.13940173 32.16261239 15.34256244 33.92480469 16.5480957 C38.71922522 19.82699465 43.52790111 23.08486347 48.3359375 26.34375 C49.32881775 27.01724487 50.321698 27.69073975 51.34466553 28.38464355 C61.6036046 35.33280647 71.95262683 42.14117454 82.3125 48.9375 C97.78373871 59.09398668 113.16446422 69.37475901 128.48974609 79.75 C142.03141755 88.91439097 155.64459604 97.9625735 169.3125 106.9375 C184.78256483 117.0958019 200.16443641 127.37474019 215.48974609 137.75 C229.94114985 147.53005666 244.48050534 157.16836977 259.06671143 166.74597168 C271.93372903 175.19766553 284.73863307 183.73456687 297.48846436 192.36203003 C302.78866515 195.94677609 308.09537227 199.52188937 313.40145874 203.09791565 C317.87462422 206.11384141 322.3433048 209.13610016 326.8046875 212.16943359 C331.24715163 215.18880654 335.7014497 218.1899048 340.16461182 221.17858887 C341.83357764 222.30081546 343.4981841 223.42955527 345.15814209 224.56506348 C347.43555177 226.12176507 349.72703711 227.65510092 352.0234375 229.18359375 C352.69217896 229.64859787 353.36092041 230.11360199 354.04992676 230.59269714 C357.60464375 232.96176834 357.60464375 232.96176834 361.73046875 233.04833984 C362.58253906 232.5167627 363.43460937 231.98518555 364.3125 231.4375 C364.9167984 231.06724197 365.5210968 230.69698395 366.14370728 230.31550598 C368.42821085 228.88903607 370.67122782 227.40907449 372.9140625 225.91796875 C374.19203201 225.07562431 374.19203201 225.07562431 375.49581909 224.21626282 C378.31286388 222.35722872 381.1252723 220.4913116 383.9375 218.625 C385.92241591 217.31233345 387.90744373 215.9998361 389.89257812 214.6875 C404.14520711 205.25340449 418.32494112 195.713089 432.47930908 186.13241577 C446.93616257 176.34845968 461.48109635 166.70650236 476.07275391 157.125 C489.72002338 148.16045137 503.29147787 139.09125417 516.8125 129.9375 C532.15692158 119.5493014 547.5835291 109.29588316 563.07275391 99.125 C576.720028 90.16044834 590.29128742 81.09097791 603.8125 71.9375 C620.13694768 60.88761785 636.55013159 49.98116926 653.02758789 39.16088867 C662.23482821 33.11284099 671.42409242 27.04045724 680.57421875 20.90625 C681.48017792 20.29943893 682.38613708 19.69262787 683.31954956 19.06742859 C687.63206765 16.17819225 691.94120305 13.28411705 696.24511719 10.38208008 C697.77657225 9.35480086 699.30814123 8.32769145 700.83984375 7.30078125 C701.52729172 6.83454346 702.21473969 6.36830566 702.92301941 5.88793945 C711.00119215 0.4877927 717.56610291 -0.42442627 727.3125 0.4375 C733.97209333 2.11835583 738.49797447 6.90128322 742.3125 12.4375 C745.26221731 18.58861698 745.66419788 24.78209868 744.3125 31.4375 C743.01524957 34.95370715 741.36248608 38.26065992 739.67665482 41.60498047 C739.18774937 42.60004545 738.69884392 43.59511044 738.19512315 44.6203289 C736.57999995 47.89902305 734.94660655 51.16823147 733.3125 54.4375 C732.20307446 56.67940011 731.09461486 58.92177845 729.98707724 61.16461182 C726.57927665 68.05278384 723.14783093 74.92900074 719.71238049 81.80341473 C717.90826339 85.41457114 716.10640384 89.02685391 714.30421948 92.63897514 C710.74589218 99.77004596 707.1854806 106.90007418 703.62437296 114.02975688 C700.66312673 119.958614 697.70280565 125.88793232 694.74306107 131.81753922 C694.31371321 132.67770192 693.88436536 133.53786463 693.44200696 134.42409288 C692.56609651 136.17891469 691.69018739 137.93373716 690.81427958 139.68856029 C679.53018233 162.29507763 668.24082518 184.89896722 656.95046876 207.50235903 C655.48773336 210.43077651 654.02501517 213.35920258 652.56230175 216.28763103 C633.92927797 253.59183205 615.29437531 290.89509448 596.6547485 328.19599669 C591.92862152 337.65374397 587.20257711 347.11153251 582.4765625 356.56933594 C581.95440493 357.6142835 581.43224737 358.65923105 580.89426685 359.73584369 C563.93545642 393.67418078 546.98677928 427.61756548 530.04368206 461.56374949 C512.60804719 496.49664003 495.16335328 531.42499084 477.70678549 566.34742595 C475.24323382 571.275846 472.77978025 576.20431508 470.31638336 581.1328125 C469.83159786 582.10270897 469.34681235 583.07260544 468.84733638 584.07189271 C461.04333013 599.68578357 453.24881347 615.3043931 445.457766 630.92475344 C437.63569102 646.60677536 429.80339459 662.28365761 421.96059796 677.95532691 C417.30065363 687.26770659 412.6485709 696.58391691 408.00759147 705.90576307 C404.90833445 712.12898693 401.79896438 718.34708657 398.68127512 724.56109662 C396.90451664 728.10315943 395.13227784 731.6472911 393.37231407 735.19773293 C391.77050002 738.42891293 390.15587597 741.65334541 388.53089389 744.87293337 C387.6760398 746.57487222 386.83489819 748.28367767 385.9943738 749.99273884 C382.27851222 757.30966137 377.68689415 765.04490257 369.5234375 768 C362.29339987 769.43067882 353.59767915 769.97583033 347.17603941 765.84447561 C339.7787165 760.25948348 335.82863456 752.32164298 331.81608772 744.18575573 C331.19358996 742.94550934 330.5700397 741.70579076 329.94554162 740.46655038 C328.23617122 737.06697197 326.54177866 733.66011931 324.84978423 730.25186699 C323.00502581 726.5425851 321.14629729 722.84031109 319.28934658 719.13712245 C316.03800242 712.64839949 312.79558635 706.15527752 309.5589962 699.6591835 C304.74620962 689.9996326 299.91966848 680.34700205 295.09030942 670.69572819 C286.9663105 654.45925916 278.85354615 638.2172011 270.74722672 621.97189903 C262.72002835 605.88522071 254.68804328 589.80094781 246.64959335 573.71988869 C245.89982603 572.21995306 245.89982603 572.21995306 245.13491188 570.68971571 C242.59639284 565.61137545 240.05779252 560.53307584 237.51916371 555.45479045 C219.53751107 519.48377055 201.56729452 483.50704843 183.60351562 447.52709961 C166.15543126 412.58008053 148.70117726 377.6361532 131.23925781 342.69604492 C130.70110737 341.61923795 130.16295694 340.54243098 129.60849891 339.4329935 C125.27933602 330.77060348 120.95014632 322.10822685 116.62090892 313.44587407 C97.95824906 276.1038281 79.29994169 238.75960731 60.64305073 201.41467878 C57.62631507 195.37617272 54.60951983 189.33769643 51.59267848 183.29924317 C40.52008342 161.13646693 29.44890111 138.97298654 18.38211437 116.80730929 C14.0123858 108.05522105 9.64208968 99.3034176 5.27002144 90.55249786 C1.64791281 83.30264406 -1.97286822 76.05212935 -5.59179505 68.80068671 C-7.41576113 65.14599427 -9.2403594 61.49162115 -11.06667648 57.8381029 C-12.72540447 54.51979937 -14.38231405 51.20059478 -16.03772606 47.88063582 C-16.91954054 46.11333729 -17.80332345 44.34702135 -18.68716717 42.58073679 C-19.20508449 41.54111749 -19.72300182 40.50149819 -20.25661361 39.43037528 C-20.7053635 38.53168905 -21.15411338 37.63300283 -21.61646175 36.70708368 C-24.72666251 30.11641255 -24.83393474 22.02323896 -23.07421875 14.984375 C-20.3793392 8.95354323 -15.21463179 4.2010659 -9.3515625 1.26953125 C-6.14723033 0.26876475 -3.35678681 0.063903 0 0 Z M64.3125 97.4375 C71.06849533 111.8851426 78.112111 126.17668534 85.25245667 140.43766785 C86.44008762 142.81336668 87.62755898 145.18914469 88.81483787 147.56501943 C91.38015715 152.69771395 93.94693597 157.82967636 96.5147171 162.96113968 C100.3328055 170.59123874 104.14856388 178.22250136 107.9638718 185.85399106 C114.38435701 198.69627031 120.80669211 211.53762357 127.23010445 224.37843895 C133.58447742 237.08125549 139.93801407 249.78448976 146.29044914 262.48827553 C146.68632566 263.27995983 147.08220219 264.07164414 147.49007497 264.88731888 C149.50075895 268.90834847 151.51142813 272.92938546 153.52209162 276.9504253 C167.74107228 305.38628962 181.96190505 333.82122732 196.18383789 362.25561523 C209.99500221 389.86875049 223.8053208 417.48230846 237.61450195 445.09643555 C238.04061821 445.94853653 238.46673446 446.80063752 238.90576333 447.67855974 C243.18523472 456.23618393 247.46468899 464.79381667 251.74413073 473.35145568 C260.46082667 490.78231175 269.17763677 508.21311072 277.89451599 525.64387512 C278.29525021 526.44520628 278.69598444 527.24653743 279.10886212 528.07215135 C305.84149437 581.52822466 332.57678765 634.98296713 359.3125 688.4375 C359.9725 688.4375 360.6325 688.4375 361.3125 688.4375 C458.6625 493.7375 556.0125 299.0375 656.3125 98.4375 C653.00289593 98.4375 652.284957 98.86987351 649.61523438 100.6394043 C648.87160645 101.12757126 648.12797852 101.61573822 647.36181641 102.11869812 C646.55147949 102.66089493 645.74114258 103.20309174 644.90625 103.76171875 C644.05144043 104.3261116 643.19663086 104.89050446 642.31591797 105.47200012 C639.47682857 107.34946503 636.64463656 109.23706621 633.8125 111.125 C631.81863395 112.44702879 629.82448918 113.7686373 627.83007812 115.08984375 C613.54977416 124.56281071 599.33795503 134.1370275 585.14624023 143.74203491 C570.68922284 153.52620838 556.1441193 163.16835603 541.55224609 172.75 C527.90497662 181.71454863 514.33352213 190.78374583 500.8125 199.9375 C485.4761076 210.32026283 470.05817219 220.56927871 454.57641602 230.73388672 C438.67041531 241.18050998 422.86848536 251.7748646 407.12109375 262.45898438 C398.57804751 268.25081698 390.00761318 273.99856449 381.375 279.65625 C380.54009033 280.20752563 379.70518066 280.75880127 378.8449707 281.32678223 C372.71352405 285.32323354 368.09035862 287.73288231 360.625 287.875 C359.48675781 287.91496094 358.34851563 287.95492187 357.17578125 287.99609375 C348.71484686 286.77272305 341.40179117 281.39852868 334.4765625 276.625 C333.24660049 275.78902283 333.24660049 275.78902283 331.99179077 274.93615723 C330.22620579 273.73559827 328.46238761 272.53243756 326.70019531 271.3269043 C321.90577478 268.04800535 317.09709889 264.79013653 312.2890625 261.53125 C311.29618225 260.85775513 310.303302 260.18426025 309.28033447 259.49035645 C299.0213954 252.54219353 288.67237317 245.73382546 278.3125 238.9375 C262.84126129 228.78101332 247.46053578 218.50024099 232.13525391 208.125 C218.59358245 198.96060903 204.98040396 189.9124265 191.3125 180.9375 C175.8515541 170.78518597 160.47797587 160.51339104 145.16244507 150.14312744 C129.2541476 139.37516201 113.24223871 128.77061292 97.17578125 118.24023438 C95.44648295 117.10566936 93.71731295 115.97090876 91.98828125 114.8359375 C91.1655069 114.29640442 90.34273254 113.75687134 89.49502563 113.20098877 C83.30457251 109.12723123 77.19051196 104.94979957 71.14241028 100.66732788 C68.02613443 98.24589642 68.02613443 98.24589642 64.3125 97.4375 Z " fill="#000000" transform="translate(38.6875,28.5625)"/>
</svg>
