<?xml version="1.0" encoding="UTF-8"?>
<svg version="1.1" xmlns="http://www.w3.org/2000/svg" width="805" height="805">
<path d="M0 0 C5.83268639 3.52469866 10.52878665 8.98829809 12.5625 15.5 C12.93359375 18.69921875 12.93359375 18.69921875 13 22.1875 C13.03996094 23.32574219 13.07992187 24.46398437 13.12109375 25.63671875 C11.89772305 34.09765314 6.52352868 41.41070883 1.75 48.3359375 C0.91402283 49.56589951 0.91402283 49.56589951 0.06115723 50.82070923 C-1.13940173 52.58629421 -2.34256244 54.35011239 -3.5480957 56.11230469 C-6.82699465 60.90672522 -10.08486347 65.71540111 -13.34375 70.5234375 C-14.01724487 71.51631775 -14.69073975 72.509198 -15.38464355 73.53216553 C-22.33280647 83.7911046 -29.14117454 94.14012683 -35.9375 104.5 C-46.09398668 119.97123871 -56.37475901 135.35196422 -66.75 150.67724609 C-75.91439097 164.21891755 -84.9625735 177.83209604 -93.9375 191.5 C-104.0958019 206.97006483 -114.37474019 222.35193641 -124.75 237.67724609 C-134.53005666 252.12864985 -144.16836977 266.66800534 -153.74597168 281.25421143 C-162.19766553 294.12122903 -170.73456687 306.92613307 -179.36203003 319.67596436 C-182.94677609 324.97616515 -186.52188937 330.28287227 -190.09791565 335.58895874 C-193.11384141 340.06212422 -196.13610016 344.5308048 -199.16943359 348.9921875 C-202.18880654 353.43465163 -205.1899048 357.8889497 -208.17858887 362.35211182 C-209.30081546 364.02107764 -210.42955527 365.6856841 -211.56506348 367.34564209 C-213.12176507 369.62305177 -214.65510092 371.91453711 -216.18359375 374.2109375 C-216.64859787 374.87967896 -217.11360199 375.54842041 -217.59269714 376.23742676 C-219.96176834 379.79214375 -219.96176834 379.79214375 -220.04833984 383.91796875 C-219.5167627 384.77003906 -218.98518555 385.62210937 -218.4375 386.5 C-218.06724197 387.1042984 -217.69698395 387.7085968 -217.31550598 388.33120728 C-215.88903607 390.61571085 -214.40907449 392.85872782 -212.91796875 395.1015625 C-212.35640579 395.95354218 -211.79484283 396.80552185 -211.21626282 397.68331909 C-209.35722872 400.50036388 -207.4913116 403.3127723 -205.625 406.125 C-204.31233345 408.10991591 -202.9998361 410.09494373 -201.6875 412.08007812 C-192.25340449 426.33270711 -182.713089 440.51244112 -173.13241577 454.66680908 C-163.34845968 469.12366257 -153.70650236 483.66859635 -144.125 498.26025391 C-135.16045137 511.90752338 -126.09125417 525.47897787 -116.9375 539 C-106.5493014 554.34442158 -96.29588316 569.7710291 -86.125 585.26025391 C-77.16044834 598.907528 -68.09097791 612.47878742 -58.9375 626 C-47.88761785 642.32444768 -36.98116926 658.73763159 -26.16088867 675.21508789 C-20.11284099 684.42232821 -14.04045724 693.61159242 -7.90625 702.76171875 C-7.29943893 703.66767792 -6.69262787 704.57363708 -6.06742859 705.50704956 C-3.17819225 709.81956765 -0.28411705 714.12870305 2.61791992 718.43261719 C3.64519914 719.96407225 4.67230855 721.49564123 5.69921875 723.02734375 C6.16545654 723.71479172 6.63169434 724.40223969 7.11206055 725.11051941 C12.5122073 733.18869215 13.42442627 739.75360291 12.5625 749.5 C10.88164417 756.15959333 6.09871678 760.68547447 0.5625 764.5 C-5.58861698 767.44971731 -11.78209868 767.85169788 -18.4375 766.5 C-21.95370715 765.20274957 -25.26065992 763.54998608 -28.60498047 761.86415482 C-29.60004545 761.37524937 -30.59511044 760.88634392 -31.6203289 760.38262315 C-34.89902305 758.76749995 -38.16823147 757.13410655 -41.4375 755.5 C-43.67940011 754.39057446 -45.92177845 753.28211486 -48.16461182 752.17457724 C-55.05278384 748.76677665 -61.92900074 745.33533093 -68.80341473 741.89988049 C-72.41457114 740.09576339 -76.02685391 738.29390384 -79.63897514 736.49171948 C-86.77004596 732.93339218 -93.90007418 729.3729806 -101.02975688 725.81187296 C-106.958614 722.85062673 -112.88793232 719.89030565 -118.81753922 716.93056107 C-119.67770192 716.50121321 -120.53786463 716.07186536 -121.42409288 715.62950696 C-123.17891469 714.75359651 -124.93373716 713.87768739 -126.68856029 713.00177958 C-149.29507763 701.71768233 -171.89896722 690.42832518 -194.50235903 679.13796876 C-197.43077651 677.67523336 -200.35920258 676.21251517 -203.28763103 674.74980175 C-240.59183205 656.11677797 -277.89509448 637.48187531 -315.19599669 618.8422485 C-324.65374397 614.11612152 -334.11153251 609.39007711 -343.56933594 604.6640625 C-344.6142835 604.14190493 -345.65923105 603.61974737 -346.73584369 603.08176685 C-380.67418078 586.12295642 -414.61756548 569.17427928 -448.56374949 552.23118206 C-483.49664003 534.79554719 -518.42499084 517.35085328 -553.34742595 499.89428549 C-558.275846 497.43073382 -563.20431508 494.96728025 -568.1328125 492.50388336 C-569.10270897 492.01909786 -570.07260544 491.53431235 -571.07189271 491.03483638 C-586.68578357 483.23083013 -602.3043931 475.43631347 -617.92475344 467.645266 C-633.60677536 459.82319102 -649.28365761 451.99089459 -664.95532691 444.14809796 C-674.26770659 439.48815363 -683.58391691 434.8360709 -692.90576307 430.19509147 C-699.12898693 427.09583445 -705.34708657 423.98646438 -711.56109662 420.86877512 C-715.10315943 419.09201664 -718.6472911 417.31977784 -722.19773293 415.55981407 C-725.42891293 413.95800002 -728.65334541 412.34337597 -731.87293337 410.71839389 C-733.57487222 409.8635398 -735.28367767 409.02239819 -736.99273884 408.1818738 C-744.30966137 404.46601222 -752.04490257 399.87439415 -755 391.7109375 C-756.43067882 384.48089987 -756.97583033 375.78517915 -752.84447561 369.36353941 C-747.25948348 361.9662165 -739.32164298 358.01613456 -731.18575573 354.00358772 C-729.94550934 353.38108996 -728.70579076 352.7575397 -727.46655038 352.13304162 C-724.06697197 350.42367122 -720.66011931 348.72927866 -717.25186699 347.03728423 C-713.5425851 345.19252581 -709.84031109 343.33379729 -706.13712245 341.47684658 C-699.64839949 338.22550242 -693.15527752 334.98308635 -686.6591835 331.7464962 C-676.9996326 326.93370962 -667.34700205 322.10716848 -657.69572819 317.27780942 C-641.45925916 309.1538105 -625.2172011 301.04104615 -608.97189903 292.93472672 C-592.88522071 284.90752835 -576.80094781 276.87554328 -560.71988869 268.83709335 C-559.7199316 268.33724847 -558.71997452 267.83740358 -557.68971571 267.32241188 C-552.61137545 264.78389284 -547.53307584 262.24529252 -542.45479045 259.70666371 C-506.48377055 241.72501107 -470.50704843 223.75479452 -434.52709961 205.79101562 C-399.58008053 188.34293126 -364.6361532 170.88867726 -329.69604492 153.42675781 C-328.61923795 152.88860737 -327.54243098 152.35045694 -326.4329935 151.79599891 C-317.77060348 147.46683602 -309.10822685 143.13764632 -300.44587407 138.80840892 C-263.1038281 120.14574906 -225.75960731 101.48744169 -188.41467878 82.83055073 C-182.37617272 79.81381507 -176.33769643 76.79701983 -170.29924317 73.78017848 C-148.13646693 62.70758342 -125.97298654 51.63640111 -103.80730929 40.56961437 C-95.05522105 36.1998858 -86.3034176 31.82958968 -77.55249786 27.45752144 C-70.30264406 23.83541281 -63.05212935 20.21463178 -55.80068671 16.59570495 C-52.14599427 14.77173887 -48.49162115 12.9471406 -44.8381029 11.12082352 C-41.51979937 9.46209553 -38.20059478 7.80518595 -34.88063582 6.14977394 C-33.11333729 5.26795946 -31.34702135 4.38417655 -29.58073679 3.50033283 C-28.54111749 2.98241551 -27.50149819 2.46449818 -26.43037528 1.93088639 C-25.53168905 1.4821365 -24.63300283 1.03338662 -23.70708368 0.57103825 C-16.78165295 -2.69713877 -7.07963495 -3.16353767 0 0 Z M-85.4375 86.5 C-280.1375 183.85 -474.8375 281.2 -675.4375 381.5 C-675.4375 382.16 -675.4375 382.82 -675.4375 383.5 C-383.3875 529.525 -383.3875 529.525 -85.4375 678.5 C-85.4375 675.19039593 -85.86987351 674.472457 -87.6394043 671.80273438 C-88.12757126 671.05910645 -88.61573822 670.31547852 -89.11869812 669.54931641 C-89.66089493 668.73897949 -90.20309174 667.92864258 -90.76171875 667.09375 C-91.3261116 666.23894043 -91.89050446 665.38413086 -92.47200012 664.50341797 C-94.34946503 661.66432857 -96.23706621 658.83213656 -98.125 656 C-99.44702879 654.00613395 -100.7686373 652.01198918 -102.08984375 650.01757812 C-111.56281071 635.73727416 -121.1370275 621.52545503 -130.74203491 607.33374023 C-140.52620838 592.87672284 -150.16835603 578.3316193 -159.75 563.73974609 C-168.71454863 550.09247662 -177.78374583 536.52102213 -186.9375 523 C-197.32026283 507.6636076 -207.56927871 492.24567219 -217.73388672 476.76391602 C-228.18050998 460.85791531 -238.7748646 445.05598536 -249.45898438 429.30859375 C-255.25081698 420.76554751 -260.99856449 412.19511318 -266.65625 403.5625 C-267.20752563 402.72759033 -267.75880127 401.89268066 -268.32678223 401.0324707 C-272.32323354 394.90102405 -274.73288231 390.27785862 -274.875 382.8125 C-274.91496094 381.67425781 -274.95492188 380.53601563 -274.99609375 379.36328125 C-273.77272305 370.90234686 -268.39852868 363.58929117 -263.625 356.6640625 C-263.06768188 355.84408783 -262.51036377 355.02411316 -261.93615723 354.17929077 C-260.73559827 352.41370579 -259.53243756 350.64988761 -258.3269043 348.88769531 C-255.04800535 344.09327478 -251.79013653 339.28459889 -248.53125 334.4765625 C-247.85775513 333.48368225 -247.18426025 332.490802 -246.49035645 331.46783447 C-239.54219353 321.2088954 -232.73382546 310.85987317 -225.9375 300.5 C-215.78101332 285.02876129 -205.50024099 269.64803578 -195.125 254.32275391 C-185.96060903 240.78108245 -176.9124265 227.16790396 -167.9375 213.5 C-157.78518597 198.0390541 -147.51339104 182.66547587 -137.14312744 167.34994507 C-126.37516201 151.4416476 -115.77061292 135.42973871 -105.24023438 119.36328125 C-98.43261753 108.9852166 -91.52055012 98.69226796 -84.4375 88.5 C-84.7675 87.84 -85.0975 87.18 -85.4375 86.5 Z " fill="#000000" transform="translate(779.4375,14.5)"/>
</svg>
