<?xml version="1.0" encoding="UTF-8"?>
<svg version="1.1" xmlns="http://www.w3.org/2000/svg" width="805" height="805">
<path d="M0 0 C0.99506498 0.48890545 1.99012997 0.9778109 3.01534843 1.48153166 C6.29404259 3.09665487 9.563251 4.73004827 12.83251953 6.36415482 C15.07441964 7.47358035 17.31679798 8.58203996 19.55963135 9.68957758 C26.44780337 13.09737817 33.32402027 16.52882389 40.19843426 19.96427432 C43.80959067 21.76839142 47.42187344 23.57025098 51.03399467 25.37243533 C58.16506549 28.93076263 65.29509371 32.49117421 72.42477641 36.05228185 C78.35363354 39.01352809 84.28295185 41.97384917 90.21255875 44.93359375 C91.07272146 45.36294161 91.93288417 45.79228946 92.81911241 46.23464786 C94.57393422 47.11055831 96.3287567 47.98646743 98.08357982 48.86237523 C120.69009716 60.14647248 143.29398675 71.43582963 165.89737856 82.72618605 C168.82579604 84.18892145 171.75422211 85.65163964 174.68265057 87.11435306 C211.98685158 105.74737685 249.29011402 124.38227951 286.59101622 143.02190631 C296.0487635 147.74803329 305.50655204 152.4740777 314.96435547 157.20009232 C316.00930303 157.72224988 317.05425058 158.24440745 318.13086322 158.78238797 C352.06920031 175.74119839 386.01258501 192.68987554 419.95876902 209.63297275 C454.89165956 227.06860763 489.82001037 244.51330153 524.74244548 261.96986932 C529.67086553 264.433421 534.59933461 266.89687457 539.52783203 269.36027145 C540.4977285 269.84505696 541.46762497 270.32984246 542.46691224 270.82931844 C558.0808031 278.63332468 573.69941264 286.42784135 589.31977297 294.21888882 C605.00179489 302.04096379 620.67867714 309.87326023 636.35034645 317.71605685 C645.66272612 322.37600119 654.97893644 327.02808391 664.30078261 331.66906335 C670.52400646 334.76832037 676.7421061 337.87769044 682.95611615 340.9953797 C686.49817896 342.77213817 690.04231063 344.54437697 693.59275246 346.30434075 C696.82393247 347.9061548 700.04836494 349.52077885 703.2679529 351.14576092 C704.96989175 352.00061502 706.6786972 352.84175662 708.38775837 353.68228102 C715.7046809 357.3981426 723.4399221 361.98976067 726.39501953 370.15321732 C727.82569836 377.38325495 728.37084986 386.07897566 724.23949514 392.50061541 C718.65450302 399.89793832 710.71666251 403.84802026 702.58077526 407.86056709 C701.34052887 408.48306486 700.10081029 409.10661511 698.86156991 409.7311132 C695.4619915 411.44048359 692.05513884 413.13487616 688.64688652 414.82687058 C684.93760463 416.671629 681.23533062 418.53035753 677.53214198 420.38730824 C671.04341902 423.63865239 664.55029705 426.88106847 658.05420303 430.11765862 C648.39465213 434.9304452 638.74202158 439.75698633 629.09074772 444.5863454 C612.85427869 452.71034432 596.61222064 460.82310866 580.36691856 468.9294281 C564.28024024 476.95662647 548.19596734 484.98861154 532.11490822 493.02706146 C530.61497259 493.77682879 530.61497259 493.77682879 529.08473524 494.54174293 C524.00639499 497.08026198 518.92809537 499.6188623 513.84980998 502.1574911 C477.87879008 520.13914375 441.90206796 538.10936029 405.92211914 556.07313919 C370.97510007 573.52122355 336.03117274 590.97547755 301.09106445 608.437397 C300.01425748 608.97554744 298.93745052 609.51369788 297.82801303 610.06815591 C289.16562301 614.39731879 280.50324638 618.72650849 271.8408936 623.0557459 C234.49884763 641.71840576 197.15462684 660.37671313 159.80969832 679.03360408 C153.77119226 682.05033975 147.73271596 685.06713499 141.6942627 688.08397634 C119.53148646 699.1565714 97.36800607 710.2277537 75.20232882 721.29454045 C66.45024058 725.66426902 57.69843714 730.03456514 48.9475174 734.40663338 C41.69766359 738.02874201 34.44714888 741.64952304 27.19570624 745.26844987 C23.5410138 747.09241595 19.88664068 748.91701422 16.23312243 750.7433313 C12.91481891 752.40205928 9.59561431 754.05896887 6.27565535 755.71438088 C4.50835682 756.59619536 2.74204088 757.47997827 0.97575632 758.36382198 C-0.06386298 758.88173931 -1.10348228 759.39965664 -2.17460519 759.93326843 C-3.07329142 760.38201831 -3.97197764 760.8307682 -4.89789679 761.29311656 C-11.48856792 764.40331732 -19.58174151 764.51058956 -26.62060547 762.75087357 C-32.65143724 760.05599402 -37.40391457 754.89128661 -40.33544922 749.02821732 C-41.33621572 745.82388514 -41.54107747 743.03344163 -41.60498047 739.67665482 C-41.64494141 738.53841263 -41.68490234 737.40017044 -41.72607422 736.22743607 C-40.50270352 727.76650167 -35.12850915 720.45344599 -30.35498047 713.52821732 C-29.5190033 712.29825531 -29.5190033 712.29825531 -28.6661377 711.04344559 C-27.46557874 709.27786061 -26.26241803 707.51404242 -25.05688477 705.75185013 C-21.77798582 700.9574296 -18.520117 696.14875371 -15.26123047 691.34071732 C-14.25098816 689.85139694 -14.25098816 689.85139694 -13.22033691 688.33198929 C-6.27217399 678.07305022 0.53619408 667.72402798 7.33251953 657.36415482 C17.48900621 641.8929161 27.76977855 626.5121906 38.14501953 611.18690872 C47.3094105 597.64523727 56.35759303 584.03205877 65.33251953 570.36415482 C75.49082143 554.89408998 85.76975972 539.51221841 96.14501953 524.18690872 C105.92507619 509.73550496 115.5633893 495.19614947 125.14099121 480.60994339 C133.59268506 467.74292579 142.1295864 454.93802175 150.75704956 442.18819046 C154.34179562 436.88798966 157.9169089 431.58128254 161.49293518 426.27519608 C164.50886094 421.80203059 167.53111969 417.33335001 170.56445312 412.87196732 C173.58382607 408.42950319 176.58492433 403.97520512 179.5736084 399.512043 C180.69583499 397.84307718 181.8245748 396.17847072 182.96008301 394.51851273 C184.5167846 392.24110304 186.05012045 389.9496177 187.57861328 387.65321732 C188.0436174 386.98447586 188.50862152 386.31573441 188.98771667 385.62672806 C191.35678787 382.07201107 191.35678787 382.07201107 191.44335938 377.94618607 C190.91178223 377.09411575 190.38020508 376.24204544 189.83251953 375.36415482 C189.46226151 374.75985641 189.09200348 374.15555801 188.71052551 373.53294754 C187.2840556 371.24844397 185.80409403 369.00542699 184.31298828 366.76259232 C183.47064384 365.4846228 183.47064384 365.4846228 182.61128235 364.18083572 C180.75224825 361.36379094 178.88633113 358.55138252 177.02001953 355.73915482 C175.70735298 353.75423891 174.39485564 351.76921109 173.08251953 349.78407669 C163.64842402 335.5314477 154.10810853 321.35171369 144.5274353 307.19734573 C134.74347921 292.74049225 125.10152189 278.19555846 115.52001953 263.60390091 C106.55547091 249.95663144 97.48627371 236.38517694 88.33251953 222.86415482 C77.94432093 207.51973323 67.69090269 192.09312572 57.52001953 176.60390091 C48.55546787 162.95662681 39.48599744 149.3853674 30.33251953 135.86415482 C19.28263738 119.53970713 8.37618879 103.12652323 -2.4440918 86.64906693 C-8.49213948 77.44182661 -14.56452323 68.2525624 -20.69873047 59.10243607 C-21.30554153 58.1964769 -21.9123526 57.29051773 -22.53755188 56.35710526 C-25.42678822 52.04458717 -28.32086342 47.73545177 -31.22290039 43.43153763 C-32.25017961 41.90008257 -33.27728902 40.36851359 -34.30419922 38.83681107 C-34.77043701 38.1493631 -35.2366748 37.46191513 -35.71704102 36.75363541 C-41.11718777 28.67546266 -42.02940674 22.11055191 -41.16748047 12.36415482 C-39.48662464 5.70456148 -34.70369725 1.17868034 -29.16748047 -2.63584518 C-18.71665998 -7.64744977 -9.73477741 -4.90718276 0 0 Z M55.83251953 83.36415482 C57.49239581 88.37719154 60.39141795 92.398044 63.35205078 96.71181107 C63.91361374 97.53886047 64.4751767 98.36590988 65.05375671 99.21802139 C66.27285781 101.01306856 67.4939507 102.80676425 68.71679688 104.59926224 C72.03345694 109.46254918 75.33365228 114.33697211 78.63330078 119.21181107 C79.31607086 120.22014999 79.99884094 121.22848892 80.70230103 122.26738358 C87.66984112 132.57350882 94.50803055 142.9629948 101.33251953 153.36415482 C110.89771928 167.93406811 120.56155014 182.4314433 130.33251953 196.86415482 C140.72071813 212.2085764 150.97413637 227.63518391 161.14501953 243.12440872 C170.1095691 256.77167963 179.17883613 270.34308325 188.33251953 283.86415482 C199.66322227 300.6014542 210.84506298 317.4318711 221.94189453 334.32509232 C222.50786346 335.18657883 223.0738324 336.04806534 223.6569519 336.9356575 C224.76449929 338.62216521 225.87138694 340.30910639 226.97756958 341.99650955 C229.71585706 346.16830102 232.47314127 350.32557638 235.265625 354.46132278 C235.81733871 355.28035583 236.36905243 356.09938889 236.93748474 356.94324112 C237.97902273 358.48674701 239.02439795 360.02767348 240.07435608 361.56546402 C244.00839407 367.3996292 246.13337557 371.87382798 246.27001953 379.05165482 C246.30998047 380.189897 246.34994141 381.32813919 246.39111328 382.50087357 C245.16774259 390.96180796 239.79354822 398.27486364 235.02001953 405.20009232 C234.18404236 406.43005432 234.18404236 406.43005432 233.33117676 407.68486404 C232.1306178 409.45044902 230.92745709 411.21426721 229.72192383 412.9764595 C226.44302488 417.77088004 223.18515607 422.57955592 219.92626953 427.38759232 C219.25277466 428.38047256 218.57927979 429.37335281 217.88537598 430.39632034 C210.93721306 440.65525942 204.12884499 451.00428165 197.33251953 461.36415482 C187.17603285 476.83539353 176.89526052 492.21611903 166.52001953 507.54140091 C157.35562857 521.08307237 148.30744603 534.69625086 139.33251953 548.36415482 C129.1802055 563.82510072 118.90841057 579.19867894 108.53814697 594.51420975 C97.77018154 610.42250722 87.16563245 626.43441611 76.63525391 642.50087357 C69.82763706 652.87893821 62.91556965 663.17188685 55.83251953 673.36415482 C56.16251953 674.02415482 56.49251953 674.68415482 56.83251953 675.36415482 C251.53251953 578.01415482 446.23251953 480.66415482 646.83251953 380.36415482 C646.83251953 379.70415482 646.83251953 379.04415482 646.83251953 378.36415482 C590.59845794 350.23855881 534.36415036 322.11345466 478.12852478 293.99098587 C477.29691769 293.5751133 476.46531059 293.15924072 475.60850329 292.73076595 C457.53772891 283.69388249 439.46691007 274.65708795 421.39604539 265.62038508 C412.53477394 261.18912566 403.67351232 256.75784657 394.81225586 252.32655716 C393.93042943 251.88557856 393.048603 251.44459997 392.14005456 250.99025839 C363.53043171 236.68331429 334.92145897 222.37507078 306.31282119 208.06615704 C276.92663587 193.36835319 247.53979894 178.67185299 218.15213529 163.9770052 C214.00634395 161.90396544 209.8605601 159.8309107 205.71478081 157.75784683 C204.89878945 157.34981744 204.08279809 156.94178805 203.24207971 156.52139413 C190.07901261 149.93926851 176.91663814 143.35575899 163.75451878 136.77173842 C150.53902366 130.16105459 137.32280798 123.5518132 124.10584409 116.94406641 C116.24251745 113.0127849 108.37975705 109.08037581 100.51778389 105.14638822 C95.27613812 102.52370031 90.03377766 99.902445 84.7908166 97.28238744 C81.79695122 95.7862148 78.80352842 94.28917386 75.81074942 92.79082817 C72.5980157 91.18248194 69.38408506 89.57655425 66.16981602 87.97127914 C65.22587922 87.49799724 64.28194242 87.02471533 63.30940148 86.53709155 C62.46143804 86.11423348 61.6134746 85.6913754 60.73981529 85.25570345 C59.63570645 84.70353204 59.63570645 84.70353204 58.50929237 84.14020565 C56.98920923 83.29415152 56.98920923 83.29415152 55.83251953 83.36415482 Z " fill="#000000" transform="translate(65.16748046875,17.635845184326172)"/>
</svg>
