<?xml version="1.0" encoding="UTF-8"?>
<svg version="1.1" xmlns="http://www.w3.org/2000/svg" width="786" height="787">
<path d="M0 0 C7.39732291 5.58499212 11.34740485 13.52283263 15.35995168 21.65871988 C15.98244945 22.89896627 16.6059997 24.13868485 17.23049778 25.37792523 C18.93986818 28.77750364 20.63426075 32.1843563 22.32625517 35.59260862 C24.17101359 39.30189051 26.02974212 43.00416452 27.88669283 46.70735316 C31.13803698 53.19607612 34.38045306 59.68919809 37.6170432 66.18529211 C42.42982978 75.84484301 47.25637092 85.49747356 52.08572998 95.14874742 C60.20972891 111.38521645 68.32249325 127.6272745 76.42881269 143.87257658 C84.45601106 159.9592549 92.48799613 176.0435278 100.52644605 192.12458692 C101.02629094 193.124544 101.52613582 194.12450109 102.04112752 195.1547599 C104.57964657 200.23310015 107.11824689 205.31139977 109.65687569 210.38968516 C127.63852833 246.36070506 145.60874488 282.33742718 163.57252378 318.317376 C181.02060814 353.26439507 198.47486214 388.2083224 215.93678159 423.14843069 C216.47493203 424.22523766 217.01308247 425.30204462 217.56754049 426.41148211 C221.89670338 435.07387213 226.22589308 443.73624876 230.55513049 452.39860154 C249.21779035 489.74064751 267.87609772 527.0848683 286.53298867 564.42979682 C289.54972434 570.46830288 292.56651958 576.50677918 295.58336093 582.54523244 C306.65595599 604.70800868 317.72713829 626.87148907 328.79392504 649.03716632 C333.16365361 657.78925456 337.53394973 666.541058 341.90601797 675.29197774 C345.5281266 682.54183155 349.14890763 689.79234626 352.76783446 697.0437889 C354.59180054 700.69848134 356.41639881 704.35285446 358.24271589 708.00637271 C359.90144387 711.32467623 361.55835346 714.64388083 363.21376546 717.96383979 C364.09557995 719.73113832 364.97936286 721.49745426 365.86320657 723.26373882 C366.3811239 724.30335812 366.89904123 725.34297742 367.43265302 726.41410033 C367.8814029 727.31278656 368.33015279 728.21147278 368.79250115 729.13739192 C371.90270191 735.72806306 372.00997415 743.82123665 370.25025816 750.86010061 C367.55537861 756.89093238 362.3906712 761.64340971 356.52760191 764.57494436 C353.32326973 765.57571086 350.53282622 765.78057261 347.17603941 765.84447561 C346.03779722 765.88443655 344.89955503 765.92439748 343.72682066 765.96556936 C335.26588626 764.74219866 327.95283058 759.36800429 321.02760191 754.59447561 C320.20762723 754.03715749 319.38765256 753.47983938 318.54283018 752.90563283 C316.7772452 751.70507388 315.01342701 750.50191317 313.25123472 749.29637991 C308.45681419 746.01748096 303.6481383 742.75961214 298.84010191 739.50072561 C297.84722166 738.82723074 296.85434141 738.15373586 295.83137388 737.45983205 C285.57243481 730.51166913 275.22341257 723.70330106 264.86353941 716.90697561 C249.39230069 706.75048893 234.01157519 696.46971659 218.68629331 686.09447561 C205.14462185 676.93008464 191.53144336 667.8819021 177.86353941 658.90697561 C162.39347457 648.74867371 147.011603 638.46973542 131.68629331 628.09447561 C117.23488955 618.31441895 102.69553406 608.67610584 88.10932798 599.09850393 C75.24231038 590.64681008 62.43740634 582.10990874 49.68757505 573.48244558 C44.38737425 569.89769952 39.08066713 566.32258624 33.77458066 562.74655996 C29.30141518 559.7306342 24.8327346 556.70837545 20.37135191 553.67504201 C15.92888778 550.65566907 11.47458971 547.65457081 7.01142759 544.66588674 C5.34246177 543.54366015 3.67785531 542.41492034 2.01789732 541.27941213 C-0.25951237 539.72271054 -2.55099771 538.18937468 -4.84739809 536.66088186 C-5.51613955 536.19587774 -6.184881 535.73087362 -6.87388735 535.25177846 C-10.42860434 532.88270727 -10.42860434 532.88270727 -14.55442934 532.79613576 C-15.40649966 533.32771291 -16.25856997 533.85929006 -17.13646059 534.40697561 C-17.740759 534.77723363 -18.3450574 535.14749166 -18.96766787 535.52896963 C-21.25217144 536.95543954 -23.49518842 538.43540111 -25.73802309 539.92650686 C-26.59000277 540.48806982 -27.44198245 541.04963277 -28.31977969 541.62821279 C-31.13682447 543.48724689 -33.94923289 545.35316401 -36.76146059 547.21947561 C-38.7463765 548.53214216 -40.73140432 549.8446395 -42.71653872 551.15697561 C-56.96916771 560.59107112 -71.14890172 570.13138661 -85.30326968 579.71205984 C-99.76012316 589.49601593 -114.30505695 599.13797325 -128.8967145 608.71947561 C-142.54398397 617.68402423 -156.11543847 626.75322143 -169.63646059 635.90697561 C-184.98088218 646.29517421 -200.40748969 656.54859245 -215.8967145 666.71947561 C-229.5439886 675.68402727 -243.11524801 684.7534977 -256.63646059 693.90697561 C-272.96090828 704.95685776 -289.37409219 715.86330635 -305.85154849 726.68358694 C-315.0587888 732.73163462 -324.24805301 738.80401837 -333.39817934 744.93822561 C-334.7571181 745.84844221 -334.7571181 745.84844221 -336.14351016 746.77704702 C-340.45602824 749.66628336 -344.76516364 752.56035856 -349.06907778 755.46239553 C-350.60053284 756.48967475 -352.13210182 757.51678416 -353.66380434 758.54369436 C-354.6949763 759.24305105 -354.6949763 759.24305105 -355.74698 759.95653616 C-363.82515275 765.3566829 -370.3900635 766.26890188 -380.13646059 765.40697561 C-386.79605393 763.72611978 -391.32193507 758.94319239 -395.13646059 753.40697561 C-398.0861779 747.25585863 -398.48815848 741.06237693 -397.13646059 734.40697561 C-395.83921016 730.89076846 -394.18644668 727.58381569 -392.50061541 724.23949514 C-391.76725724 722.74689766 -391.76725724 722.74689766 -391.01908375 721.22414671 C-389.40396055 717.94545255 -387.77056714 714.67624414 -386.13646059 711.40697561 C-385.02703506 709.1650755 -383.91857545 706.92269716 -382.81103783 704.67986379 C-379.40323724 697.79169177 -375.97179152 690.91547487 -372.53634109 684.04106088 C-370.73222399 680.42990447 -368.93036443 676.8176217 -367.12818008 673.20550046 C-363.56985278 666.07442965 -360.0094412 658.94440143 -356.44833356 651.81471873 C-353.48708732 645.8858616 -350.52676624 639.95654329 -347.56702166 634.02693639 C-347.13767381 633.16677368 -346.70832595 632.30661097 -346.26596755 631.42038273 C-345.3900571 629.66556092 -344.51414798 627.91073844 -343.63824018 626.15591532 C-332.35414293 603.54939798 -321.06478578 580.94550839 -309.77442936 558.34211658 C-308.31169396 555.4136991 -306.84897577 552.48527303 -305.38626235 549.55684457 C-286.75323856 512.25264356 -268.1183359 474.94938112 -249.4787091 437.64847892 C-244.75258212 428.19073164 -240.02653771 418.7329431 -235.30052309 409.27513967 C-234.77836553 408.23019211 -234.25620796 407.18524456 -233.71822744 406.10863192 C-216.75941702 372.17029483 -199.81073987 338.22691013 -182.86764266 304.28072612 C-165.43200778 269.34783558 -147.98731388 234.41948477 -130.53074609 199.49704966 C-128.06719442 194.56862961 -125.60374084 189.64016053 -123.14034396 184.71166311 C-122.65555845 183.74176664 -122.17077295 182.77187017 -121.67129697 181.7725829 C-113.86729073 166.15869204 -106.07277406 150.5400825 -98.2817266 134.91972217 C-90.45965162 119.23770025 -82.62735518 103.560818 -74.78455856 87.88914869 C-70.12461422 78.57676902 -65.4725315 69.2605587 -60.83155206 59.93871253 C-57.73229504 53.71548868 -54.62292497 47.49738904 -51.50523571 41.28337898 C-49.72847724 37.74131617 -47.95623844 34.19718451 -46.19627466 30.64674268 C-44.59446061 27.41556267 -42.97983656 24.1911302 -41.35485449 20.97154224 C-40.50000039 19.26960339 -39.65885879 17.56079794 -38.81833439 15.85173677 C-35.10247281 8.53481424 -30.51085474 0.79957304 -22.34739809 -2.15552439 C-15.11736046 -3.58620322 -6.42163975 -4.13135472 0 0 Z M-14.13646059 77.40697561 C-111.48646059 272.10697561 -208.83646059 466.80697561 -309.13646059 667.40697561 C-305.82685652 667.40697561 -305.10891759 666.9746021 -302.43919497 665.20507131 C-301.69556704 664.71690435 -300.95193911 664.22873739 -300.185777 663.72577749 C-299.37544009 663.18358068 -298.56510317 662.64138387 -297.73021059 662.08275686 C-296.87540102 661.51836401 -296.02059145 660.95397115 -295.13987856 660.37247549 C-292.30078916 658.49501058 -289.46859715 656.6074094 -286.63646059 654.71947561 C-284.64259455 653.39744682 -282.64844978 652.07583831 -280.65403872 650.75463186 C-266.37373475 641.2816649 -252.16191562 631.70744811 -237.97020083 622.1024407 C-223.51318343 612.31826723 -208.9680799 602.67611958 -194.37620669 593.09447561 C-180.72893722 584.12992698 -167.15748272 575.06072978 -153.63646059 565.90697561 C-138.3000682 555.52421278 -122.88213278 545.27519689 -107.40037661 535.11058889 C-91.49437591 524.66396563 -75.69244596 514.069611 -59.94505434 503.38549123 C-51.4020081 497.59365863 -42.83157378 491.84591112 -34.19896059 486.18822561 C-33.36405093 485.63694997 -32.52914126 485.08567434 -31.6689313 484.51769338 C-25.53748464 480.52124207 -20.91431922 478.1115933 -13.44896059 477.96947561 C-12.31071841 477.92951467 -11.17247622 477.88955373 -9.99974184 477.84838186 C-1.53880745 479.07175255 5.77424823 484.44594692 12.69947691 489.21947561 C13.51945158 489.77679372 14.33942625 490.33411184 15.18424863 490.90831838 C16.94983361 492.10887734 18.7136518 493.31203805 20.47584409 494.51757131 C25.27026462 497.79647026 30.07894051 501.05433907 34.88697691 504.31322561 C35.87985715 504.98672048 36.8727374 505.66021535 37.89570493 506.35411916 C48.15464401 513.30228208 58.50366624 520.11065015 68.86353941 526.90697561 C84.33477812 537.06346229 99.71550362 547.34423462 115.0407855 557.71947561 C128.58245696 566.88386657 142.19563545 575.93204911 155.86353941 584.90697561 C171.32448531 595.05928964 186.69806353 605.33108457 202.01359434 615.70134817 C217.92189181 626.4693136 233.9338007 637.07386269 250.00025816 647.60424123 C260.3783228 654.41185807 270.67127144 661.32392549 280.86353941 668.40697561 C281.52353941 668.07697561 282.18353941 667.74697561 282.86353941 667.40697561 C185.51353941 472.70697561 88.16353941 278.00697561 -12.13646059 77.40697561 C-12.79646059 77.40697561 -13.45646059 77.40697561 -14.13646059 77.40697561 Z " fill="#000000" transform="translate(406.1364605948329,2.593024391680956)"/>
</svg>
